<svg width="68" height="68" viewBox="0 0 68 68" fill="none" xmlns="http://www.w3.org/2000/svg">
<path d="M27.1602 61.0414V67.9284L25.4948 66.5832C25.2375 66.3751 19.1151 61.4045 12.9067 54.2767C4.34235 44.4439 0 35.6176 0 28.0437V27.293C0 12.3168 12.184 0.132812 27.1602 0.132812C42.1363 0.132812 54.3203 12.3168 54.3203 27.293V28.0437C54.3203 28.6797 54.2866 29.3256 54.2254 29.9793L48.9139 25.1337C47.826 14.0895 38.4855 5.43234 27.1602 5.43234C15.1064 5.43234 5.29953 15.2392 5.29953 27.293V28.0437C5.29953 40.8424 21.7901 56.3364 27.1602 61.0414ZM43.4561 57.2349H51.4052V49.2859H43.4561V57.2349ZM27.1602 16.0314C33.3697 16.0314 38.4217 21.0835 38.4217 27.293C38.4217 33.5025 33.3697 38.5545 27.1602 38.5545C20.9507 38.5545 15.8986 33.5025 15.8986 27.293C15.8986 21.0835 20.9507 16.0314 27.1602 16.0314ZM27.1602 21.3309C23.8725 21.3309 21.1981 24.0053 21.1981 27.293C21.1981 30.5801 23.8725 33.255 27.1602 33.255C30.4473 33.255 33.1222 30.5801 33.1222 27.293C33.1222 24.0053 30.4473 21.3309 27.1602 21.3309ZM64.4286 53.6339L62.9386 52.2747V60.7825C62.9386 64.744 59.7153 67.9668 55.7538 67.9668H38.9753C35.0137 67.9668 31.7904 64.744 31.7904 60.7825V52.2747L30.3004 53.6339L26.729 49.7191L47.3643 30.8934L68 49.7191L64.4286 53.6339ZM57.6391 47.44L47.3643 38.0669L37.09 47.44V60.782C37.09 61.8216 37.9356 62.6673 38.9753 62.6673H55.7538C56.7934 62.6673 57.6391 61.8216 57.6391 60.782V47.44Z" fill="#FFB800"/>
</svg>
