<svg width="68" height="68" viewBox="0 0 68 68" fill="none" xmlns="http://www.w3.org/2000/svg">
<path d="M34 0C15.2527 0 0 15.2527 0 34C0 52.7473 15.2527 68 34 68C52.7473 68 68 52.7473 68 34C68 15.2527 52.7473 0 34 0ZM34 63.75C17.5956 63.75 4.25002 50.4044 4.25002 34C4.25002 17.5956 17.5956 4.25002 34 4.25002C50.4044 4.25002 63.75 17.5956 63.75 34C63.75 50.4044 50.4044 63.75 34 63.75Z" fill="#FFB800"/>
<path d="M36.125 12.75H31.875V34.8798L45.2475 48.2524L48.2524 45.2475L36.125 33.1201V12.75Z" fill="#FFB800"/>
</svg>
