<svg width="68" height="68" viewBox="0 0 68 68" fill="none" xmlns="http://www.w3.org/2000/svg">
<path d="M62.0234 8.10156H5.97656C2.6852 8.10156 0 10.7838 0 14.0781V53.9219C0 57.205 2.67325 59.8984 5.97656 59.8984H62.0234C65.3066 59.8984 68 57.2252 68 53.9219V14.0781C68 10.795 65.3268 8.10156 62.0234 8.10156ZM61.1981 12.0859L34.1267 39.1575L6.82112 12.0859H61.1981ZM3.98438 53.0968V14.8842L23.173 33.9082L3.98438 53.0968ZM6.80173 55.9141L26.0024 36.7134L32.7303 43.3835C33.5091 44.1556 34.7659 44.1531 35.5416 43.3774L42.1016 36.8174L61.1983 55.9141H6.80173ZM64.0156 53.0967L44.9189 34L64.0156 14.9032V53.0967Z" fill="#FFB800"/>
</svg>
