<svg width="68" height="68" viewBox="0 0 68 68" fill="none" xmlns="http://www.w3.org/2000/svg">
<g clip-path="url(#clip0)">
<path d="M28.1574 39.8422C21.667 33.3517 20.2014 26.8612 19.8708 24.2608C19.7784 23.5418 20.0259 22.8207 20.5403 22.3099L25.7927 17.0598C26.5653 16.2877 26.7024 15.0843 26.1233 14.1581L17.7605 1.17247C17.1198 0.146901 15.8042 -0.223237 14.7228 0.317782L1.29745 6.64061C0.422896 7.07125 -0.091503 8.00044 0.00779271 8.97019C0.711241 15.653 3.62469 32.0808 19.7688 48.2261C35.913 64.3714 52.3385 67.2837 59.0248 67.9872C59.9945 68.0864 60.9237 67.5721 61.3543 66.6975L67.6772 53.2722C68.2162 52.193 67.8485 50.881 66.8272 50.2392L53.8415 41.8787C52.9159 41.2989 51.7125 41.4351 50.9398 42.207L45.6897 47.4594C45.1789 47.9738 44.4578 48.2212 43.7388 48.1288C41.1384 47.7982 34.6479 46.3327 28.1574 39.8422Z" fill="#FFB800"/>
<path d="M53.9311 36.3448C52.6361 36.3448 51.5863 35.295 51.5863 34C51.5753 24.2919 43.7081 16.4248 34.0001 16.4138C32.7051 16.4138 31.6553 15.364 31.6553 14.0689C31.6553 12.7739 32.7051 11.7241 34.0001 11.7241C46.2971 11.7377 56.2624 21.703 56.276 34C56.276 35.295 55.2261 36.3448 53.9311 36.3448Z" fill="#FFB800"/>
<path d="M65.6553 36.3448C64.3603 36.3448 63.3104 35.295 63.3104 34C63.2923 17.8198 50.1803 4.70775 34.0001 4.68966C32.7051 4.68966 31.6553 3.63984 31.6553 2.34483C31.6553 1.04982 32.7051 0 34.0001 0C52.7692 0.0206765 67.9794 15.2309 68.0001 34C68.0001 34.6219 67.7531 35.2183 67.3133 35.658C66.8736 36.0978 66.2772 36.3448 65.6553 36.3448Z" fill="#FFB800"/>
</g>
<defs>
<clipPath id="clip0">
<rect width="68" height="68" fill="white"/>
</clipPath>
</defs>
</svg>
