<svg width="19" height="15" viewBox="0 0 19 15" fill="none" xmlns="http://www.w3.org/2000/svg">
<path d="M18.7316 1.73609C18.0235 2.04068 17.3152 2.2309 16.6074 2.3073C17.4068 1.82762 17.9476 1.14995 18.2294 0.274347C17.498 0.708269 16.7177 1.00514 15.8879 1.16511C15.1568 0.388478 14.2585 0 13.1923 0C12.1721 0 11.3023 0.359715 10.5824 1.0793C9.86304 1.79885 9.50328 2.6687 9.50328 3.68896C9.50328 3.96302 9.53369 4.24485 9.59465 4.53416C8.08699 4.45803 6.67269 4.07924 5.35153 3.39777C4.03044 2.71622 2.90925 1.80822 1.98797 0.673746C1.65293 1.24468 1.48536 1.86534 1.48536 2.53537C1.48536 3.16735 1.63381 3.75372 1.93092 4.29434C2.22783 4.83487 2.62767 5.27263 3.13023 5.6077C2.53622 5.58482 1.9804 5.42869 1.46272 5.13934V5.18502C1.46272 6.07595 1.74254 6.85815 2.30212 7.53221C2.86177 8.2062 3.56804 8.63044 4.42076 8.80565C4.10093 8.8893 3.77726 8.93119 3.4499 8.93119C3.23668 8.93119 3.00442 8.91218 2.7532 8.87438C2.98922 9.61281 3.42326 10.2198 4.05516 10.696C4.68718 11.1718 5.40293 11.4171 6.20245 11.4327C4.8624 12.4833 3.33577 13.0086 1.62257 13.0086C1.2951 13.0086 0.998235 12.9937 0.731689 12.9631C2.44493 14.067 4.33323 14.619 6.39671 14.619C7.70635 14.619 8.93607 14.4117 10.0854 13.9966C11.2354 13.5818 12.2175 13.0259 13.0323 12.329C13.8469 11.6324 14.5494 10.831 15.1395 9.92492C15.7295 9.0188 16.1691 8.07282 16.4587 7.08681C16.7479 6.10059 16.8926 5.11286 16.8926 4.12284C16.8926 3.90962 16.8888 3.7498 16.8811 3.64315C17.6047 3.11802 18.2214 2.48212 18.7316 1.73609Z" fill="white"/>
</svg>
